<?xml version="1.0" encoding="utf-8"?>
<!-- Generator: Adobe Illustrator 22.1.0, SVG Export Plug-In . SVG Version: 6.00 Build 0)  -->
<svg version="1.1" id="Layer_1" xmlns="http://www.w3.org/2000/svg" xmlns:xlink="http://www.w3.org/1999/xlink" x="0px" y="0px"
	 viewBox="0 0 400 125.6" style="enable-background:new 0 0 400 125.6;" xml:space="preserve">
<style type="text/css">
	.st0{fill:#FFFFFF;}
</style>
<g>
	<polyline class="st0" points="73,125.6 39.1,41.8 39.1,125.6 	"/>
</g>
<g>
	<polygon class="st0" points="71.9,78 71.9,-0.3 40.2,-0.3 	"/>
</g>
<path class="st0" d="M91.3-0.3h29.1c23.6,0,36.8,11.5,36.8,31.9c0,14.9-6.6,23.8-20.8,28.1c17,4.9,23.8,13.6,23.8,30.2
	c0,22.3-14,35.7-37.4,35.7H91.3V-0.3z M117.7,51c11.9,0,19.6-7,19.6-17.7c0-4.7-1.7-8.9-4.7-11.7c-3.2-2.8-7.2-4-14.5-4h-7.4V51
	H117.7z M120.6,107.7c12.5,0,19.4-6.4,19.4-17.7c0-12.7-8.7-21-22.3-21h-7v38.7H120.6z"/>
<path class="st0" d="M239,86.9c0,13.1-2.1,20.9-7.2,27.6c-5.7,7.3-15.1,11.2-27.2,11.2s-21.5-3.8-27.2-11.2
	c-5.1-6.6-7.2-14.5-7.2-27.6V38.5c0-13.1,2.1-20.9,7.2-27.6c5.7-7.3,15.1-11.2,27.2-11.2s21.5,3.8,27.2,11.2
	c5.1,6.6,7.2,14.5,7.2,27.6V86.9z M189.7,86.5c0,9.2,0.6,12.4,2.5,15.9c2.3,3.8,7,6.3,12.5,6.3c5.5,0,10.2-2.4,12.5-6.3
	c2.1-3.7,2.5-6.5,2.5-15.9V38.9c0-9.4-0.4-12.2-2.5-15.9c-2.3-3.8-7-6.3-12.5-6.3c-5.5,0-10.2,2.4-12.5,6.3
	c-1.9,3.5-2.5,6.6-2.5,15.9V86.5z"/>
<path class="st0" d="M321.6,125.6H300l-19.3-45.9L263,125.6h-21.3l28.1-65.7l-27-60.2h21.5l16.8,40.4l15.7-40.4H318l-25.9,60.2
	L321.6,125.6z"/>
<path class="st0" d="M351.3,125.6h-19.4V-0.3h30.4c11.5,0,18.9,2.3,24.9,7.6c7.6,6.4,11.3,16.1,11.3,28.5c0,15.9-5.7,26.8-17,32.7
	l18.5,57.2h-20.4L363,73.9h-11.7V125.6z M358.5,56c8.3,0,12.1-0.9,15.1-4c3.2-3.2,4.7-8.3,4.7-15.3c0-6.8-1.5-11.9-4.7-15.1
	c-3-3-6.8-4-15.1-4h-7.2V56H358.5z"/>
<rect y="-0.3" class="st0" width="19.4" height="125.9"/>
</svg>
