<svg version="1.1" id="Layer_1" xmlns="http://www.w3.org/2000/svg" x="0" y="0" viewBox="0 0 400 125.6" xml:space="preserve"><path d="M73 125.6L39.1 41.8v83.8M71.9 78V-.3H40.2zM91.3-.3h29.1c23.6 0 36.8 11.5 36.8 31.9 0 14.9-6.6 23.8-20.8 28.1 17 4.9 23.8 13.6 23.8 30.2 0 22.3-14 35.7-37.4 35.7H91.3V-.3zM117.7 51c11.9 0 19.6-7 19.6-17.7 0-4.7-1.7-8.9-4.7-11.7-3.2-2.8-7.2-4-14.5-4h-7.4V51h7zm2.9 56.7c12.5 0 19.4-6.4 19.4-17.7 0-12.7-8.7-21-22.3-21h-7v38.7h9.9zM239 86.9c0 13.1-2.1 20.9-7.2 27.6-5.7 7.3-15.1 11.2-27.2 11.2s-21.5-3.8-27.2-11.2c-5.1-6.6-7.2-14.5-7.2-27.6V38.5c0-13.1 2.1-20.9 7.2-27.6 5.7-7.3 15.1-11.2 27.2-11.2s21.5 3.8 27.2 11.2c5.1 6.6 7.2 14.5 7.2 27.6v48.4zm-49.3-.4c0 9.2.6 12.4 2.5 15.9 2.3 3.8 7 6.3 12.5 6.3s10.2-2.4 12.5-6.3c2.1-3.7 2.5-6.5 2.5-15.9V38.9c0-9.4-.4-12.2-2.5-15.9-2.3-3.8-7-6.3-12.5-6.3s-10.2 2.4-12.5 6.3c-1.9 3.5-2.5 6.6-2.5 15.9v47.6zm131.9 39.1H300l-19.3-45.9-17.7 45.9h-21.3l28.1-65.7-27-60.2h21.5l16.8 40.4L296.8-.3H318l-25.9 60.2 29.5 65.7zm29.7 0h-19.4V-.3h30.4c11.5 0 18.9 2.3 24.9 7.6 7.6 6.4 11.3 16.1 11.3 28.5 0 15.9-5.7 26.8-17 32.7l18.5 57.2h-20.4L363 73.9h-11.7v51.7zm7.2-69.6c8.3 0 12.1-.9 15.1-4 3.2-3.2 4.7-8.3 4.7-15.3 0-6.8-1.5-11.9-4.7-15.1-3-3-6.8-4-15.1-4h-7.2V56h7.2zM0-.3h19.4v125.9H0z" fill="#fff"/></svg>